<svg width="11" height="9" viewBox="0 0 11 9" fill="none" xmlns="http://www.w3.org/2000/svg">
<path fill-rule="evenodd" clip-rule="evenodd" d="M5.22732 9L9.24586 5.04131C9.78589 4.48902 10.0898 3.73577 10.0898 2.94978C10.0898 2.16379 9.78589 1.41054 9.24586 0.85825C8.13408 -0.271677 6.35821 -0.287922 5.22732 0.82149C4.09447 -0.285828 2.31858 -0.266222 1.20879 0.865856C0.669727 1.41916 0.367094 2.17299 0.368474 2.95897C0.369854 3.74496 0.675132 4.49764 1.21613 5.04891L5.22732 9ZM1.89792 1.58205C2.30084 1.16659 2.8621 0.959576 3.42791 1.01773C3.99371 1.07588 4.50473 1.3931 4.82094 1.88247L5.22732 2.51626L5.6337 1.88247C5.70537 1.77408 5.78738 1.67343 5.87851 1.58205C6.62214 0.826397 7.81309 0.826397 8.55672 1.58205C8.90969 1.94257 9.10901 2.43415 9.11039 2.94756C9.11177 3.46097 8.91509 3.95369 8.56406 4.31625L5.22732 7.60058L1.89792 4.32005C1.54479 3.95836 1.34607 3.46539 1.34607 2.95105C1.34607 2.4367 1.54479 1.94373 1.89792 1.58205Z" fill="black"/>
</svg>
