<svg width="18" height="20" viewBox="0 0 18 20" fill="none" xmlns="http://www.w3.org/2000/svg">
<path fill-rule="evenodd" clip-rule="evenodd" d="M17.2502 14.5002L16.2419 13.4232V9.80245C16.2458 6.9762 14.5581 4.42199 11.9567 3.31727V2.90478C12.0502 1.90038 11.5672 0.92956 10.7096 0.398383C9.85205 -0.132794 8.76771 -0.132794 7.91013 0.398383C7.05256 0.92956 6.56954 1.90038 6.6631 2.90478V3.31727C4.05272 4.41493 2.3549 6.97068 2.35492 9.80245V13.4002L1.34662 14.4773C0.856181 15.0134 0.728619 15.7885 1.02141 16.4535C1.3142 17.1185 1.97208 17.5478 2.69866 17.548H6.15895C6.51514 18.9817 7.79828 19.9912 9.2755 20H9.32134C10.7919 19.9939 12.0729 18.9955 12.4379 17.5709H15.9211C16.6477 17.5707 17.3056 17.1414 17.5983 16.4764C17.8911 15.8114 17.7636 15.0363 17.2731 14.5002H17.2502ZM8.01512 2.90483C7.94851 2.40969 8.17532 1.9209 8.59642 1.65206C9.01753 1.38323 9.55638 1.38323 9.97748 1.65206C10.3986 1.9209 10.6254 2.40969 10.5588 2.90483C9.71843 2.74498 8.85547 2.74498 8.01512 2.90483ZM9.32144 18.648H9.27561C8.56167 18.6476 7.91125 18.2377 7.60275 17.5939H10.9943C10.6793 18.2288 10.0302 18.6289 9.32144 18.6251V18.648ZM16.3336 15.921C16.2668 16.0896 16.1024 16.1992 15.9211 16.196H2.67572C2.48818 16.2028 2.31541 16.0946 2.23966 15.9229C2.16391 15.7512 2.20049 15.5507 2.33198 15.4168L3.5236 14.1335C3.63934 14.0087 3.70467 13.8454 3.70693 13.6752V9.80244C3.70693 7.81299 4.76829 5.97466 6.4912 4.97993C8.21412 3.98521 10.3368 3.98521 12.0598 4.97993C13.7827 5.97466 14.844 7.81299 14.844 9.80244V13.6752C14.8463 13.8454 14.9116 14.0087 15.0274 14.1335L16.219 15.4168C16.3636 15.5415 16.4101 15.746 16.3336 15.921Z" fill="black"/>
</svg>
