<svg width="15" height="11" viewBox="0 0 15 11" fill="none" xmlns="http://www.w3.org/2000/svg">
<path fill-rule="evenodd" clip-rule="evenodd" d="M8.29653 11C8.62373 11 8.88898 10.7324 8.88898 10.4022C8.88898 9.51523 8.63031 8.68924 8.18494 7.99684C8.75106 7.48512 9.49889 7.17393 10.3187 7.17393C12.0856 7.17393 13.5179 8.61927 13.5179 10.4022C13.5179 10.7324 13.7832 11 14.1104 11C14.4376 11 14.7028 10.7324 14.7028 10.4022C14.7028 7.95893 12.74 5.97827 10.3187 5.97827C9.2035 5.97827 8.18553 6.39848 7.41181 7.09054C6.6381 6.39847 5.62012 5.97827 4.50488 5.97827C2.08361 5.97827 0.120789 7.95892 0.120789 10.4022C0.120789 10.7324 0.386035 11 0.713234 11C1.04043 11 1.30568 10.7324 1.30568 10.4022C1.30568 8.61926 2.73801 7.17392 4.50488 7.17392C5.32474 7.17392 6.07257 7.48512 6.63868 7.99684C6.19332 8.68924 5.93465 9.51523 5.93465 10.4022C5.93465 10.7324 6.19989 11 6.52709 11C6.85429 11 7.11954 10.7324 7.11954 10.4022C7.11954 9.92025 7.22419 9.46299 7.41181 9.05227C7.59943 9.46299 7.70409 9.92025 7.70409 10.4022C7.70409 10.7324 7.96933 11 8.29653 11ZM4.50488 5.5C2.99977 5.5 1.77963 4.26878 1.77963 2.75C1.77963 1.23122 2.99977 0 4.50488 0C6.00999 0 7.23012 1.23122 7.23012 2.75C7.23012 4.26878 6.00999 5.5 4.50488 5.5ZM4.50488 4.30434C5.35559 4.30434 6.04523 3.60844 6.04523 2.75C6.04523 1.89156 5.35559 1.19566 4.50488 1.19566C3.65416 1.19566 2.96452 1.89156 2.96452 2.75C2.96452 3.60844 3.65416 4.30434 4.50488 4.30434ZM10.3187 4.30434C11.1694 4.30434 11.8591 3.60844 11.8591 2.75C11.8591 1.89156 11.1694 1.19566 10.3187 1.19566C9.46802 1.19566 8.77838 1.89156 8.77838 2.75C8.77838 3.60844 9.46802 4.30434 10.3187 4.30434ZM10.3187 5.5C8.81363 5.5 7.59349 4.26878 7.59349 2.75C7.59349 1.23122 8.81363 0 10.3187 0C11.8239 0 13.044 1.23122 13.044 2.75C13.044 4.26878 11.8239 5.5 10.3187 5.5Z" fill="black"/>
</svg>
