<svg width="22" height="20" viewBox="0 0 22 20" fill="none" xmlns="http://www.w3.org/2000/svg">
<path fill-rule="evenodd" clip-rule="evenodd" d="M8.13821 0C7.49329 0 7.05713 0.562054 7.05713 1.11486V18.8767C7.05713 19.4295 7.49329 20 8.13821 20H11.3815C12.0264 20 12.4625 19.4295 12.4625 18.8767V1.11486C12.4625 0.562054 12.0264 0 11.3815 0H8.13821ZM8.67871 1.62158H10.8409V3.78374H8.67871V1.62158ZM1.08108 2.16211C0.496189 2.16211 0 2.6583 0 3.24319V18.9189C0 19.5038 0.496189 19.9999 1.08108 19.9999H4.32432C4.90922 19.9999 5.40541 19.5038 5.40541 18.9189V3.24319C5.40541 2.6583 4.90922 2.16211 4.32432 2.16211H1.08108ZM1.62158 3.78381H3.78374V5.40544H1.62158V3.78381ZM8.67871 5.4054H10.8409V14.5946H8.67871V5.4054ZM1.62158 7.02698H3.78374V15.1351H1.62158V7.02698ZM8.67871 16.2162H10.8409V18.3783H8.67871V16.2162ZM1.62158 16.7567H3.78374V18.3783H1.62158V16.7567ZM17.1523 16.698L19.2849 16.3414L19.5523 17.9409L17.4197 18.2974L17.1523 16.698ZM17.9478 8.34436L19.0174 14.742L16.8848 15.0986L15.8152 8.70091L17.9478 8.34436ZM15.2805 5.50206L17.4131 5.14551L17.6805 6.74493L15.5479 7.10148L15.2805 5.50206ZM14.4798 3.99183C13.9325 4.08333 13.4876 4.6129 13.5876 5.21138L15.9122 19.1147C16.0122 19.7132 16.6067 20.0775 17.1539 19.986L20.3528 19.4512C20.9001 19.3597 21.3436 18.8218 21.2436 18.2233L18.919 4.32001C18.819 3.72153 18.226 3.3655 17.6787 3.45701L14.4798 3.99183Z" fill="white"/>
</svg>
