<svg width="27" height="27" viewBox="0 0 27 27" fill="none" xmlns="http://www.w3.org/2000/svg">
<g id="details-toggle">
<path id="Oval 4" fill-rule="evenodd" clip-rule="evenodd" d="M0 13.5C0 20.9558 6.04416 27 13.5 27C20.9558 27 27 20.9558 27 13.5C27 6.04416 20.9558 0 13.5 0C6.04416 0 0 6.04416 0 13.5Z" fill="white"/>
<g id="Combined Shape">
<path d="M12 7.5C12 8.32843 12.6716 9 13.5 9C14.3284 9 15 8.32843 15 7.5C15 6.67157 14.3284 6 13.5 6C12.6716 6 12 6.67157 12 7.5Z" fill="#999999"/>
<path d="M12 13.5C12 14.3284 12.6716 15 13.5 15C14.3284 15 15 14.3284 15 13.5C15 12.6716 14.3284 12 13.5 12C12.6716 12 12 12.6716 12 13.5Z" fill="#999999"/>
<path d="M13.5 21C12.6716 21 12 20.3284 12 19.5C12 18.6716 12.6716 18 13.5 18C14.3284 18 15 18.6716 15 19.5C15 20.3284 14.3284 21 13.5 21Z" fill="#999999"/>
</g>
</g>
</svg>
