<svg width="11" height="11" viewBox="0 0 11 11" fill="none" xmlns="http://www.w3.org/2000/svg">
<path id="Shape" fill-rule="evenodd" clip-rule="evenodd" d="M5.49793 10.7502L10.045 6.3517C10.6561 5.73804 11 4.90109 11 4.02778C11 3.15446 10.6561 2.31751 10.045 1.70386C8.787 0.44838 6.77756 0.43033 5.49793 1.66301C4.21607 0.432657 2.20661 0.454442 0.950841 1.71231C0.340881 2.32709 -0.00155616 3.16467 5.31676e-06 4.03799C0.00156679 4.91131 0.346997 5.74762 0.959151 6.36015L5.49793 10.7502ZM1.73062 2.50807C2.18653 2.04645 2.82161 1.81644 3.46184 1.88105C4.10207 1.94567 4.6803 2.29813 5.03809 2.84187L5.49793 3.54609L5.95776 2.84187C6.03885 2.72144 6.13166 2.60961 6.23477 2.50807C7.07621 1.66846 8.42379 1.66846 9.26523 2.50807C9.66463 2.90866 9.89017 3.45486 9.89173 4.02531C9.89329 4.59577 9.67075 5.14323 9.27354 5.54607L5.49793 9.19533L1.73062 5.5503C1.33104 5.14842 1.10618 4.60068 1.10618 4.02918C1.10618 3.45769 1.33104 2.90995 1.73062 2.50807Z" fill="#999999"/>
</svg>
