<svg width="13" height="11" viewBox="0 0 13 11" fill="none" xmlns="http://www.w3.org/2000/svg">
<path id="Shape" fill-rule="evenodd" clip-rule="evenodd" d="M7.28873 10.7502C7.58043 10.7502 7.8169 10.5069 7.8169 10.2068C7.8169 9.40045 7.5863 8.64955 7.18925 8.02009C7.69395 7.55489 8.36064 7.27198 9.09155 7.27198C10.6667 7.27198 11.9437 8.58593 11.9437 10.2068C11.9437 10.5069 12.1801 10.7502 12.4718 10.7502C12.7635 10.7502 13 10.5069 13 10.2068C13 7.98562 11.2501 6.18503 9.09155 6.18503C8.09731 6.18503 7.18977 6.56703 6.5 7.19618C5.81023 6.56703 4.90269 6.18503 3.90845 6.18503C1.74987 6.18503 0 7.98562 0 10.2068C0 10.5069 0.236469 10.7502 0.528169 10.7502C0.819869 10.7502 1.05634 10.5069 1.05634 10.2068C1.05634 8.58593 2.33327 7.27198 3.90845 7.27198C4.63936 7.27198 5.30605 7.55489 5.81075 8.02009C5.41371 8.64955 5.1831 9.40045 5.1831 10.2068C5.1831 10.5069 5.41957 10.7502 5.71127 10.7502C6.00297 10.7502 6.23944 10.5069 6.23944 10.2068C6.23944 9.76865 6.33274 9.35296 6.5 8.97958C6.66727 9.35296 6.76056 9.76865 6.76056 10.2068C6.76056 10.5069 6.99703 10.7502 7.28873 10.7502ZM3.90845 5.75024C2.56663 5.75024 1.47887 4.63096 1.47887 3.25024C1.47887 1.86953 2.56663 0.750244 3.90845 0.750244C5.25027 0.750244 6.33803 1.86953 6.33803 3.25024C6.33803 4.63096 5.25027 5.75024 3.90845 5.75024ZM3.90845 4.66329C4.66687 4.66329 5.28169 4.03065 5.28169 3.25024C5.28169 2.46984 4.66687 1.8372 3.90845 1.8372C3.15003 1.8372 2.53521 2.46984 2.53521 3.25024C2.53521 4.03065 3.15003 4.66329 3.90845 4.66329ZM9.09155 4.66329C9.84997 4.66329 10.4648 4.03065 10.4648 3.25024C10.4648 2.46984 9.84997 1.8372 9.09155 1.8372C8.33313 1.8372 7.71831 2.46984 7.71831 3.25024C7.71831 4.03065 8.33313 4.66329 9.09155 4.66329ZM9.09155 5.75024C7.74973 5.75024 6.66197 4.63096 6.66197 3.25024C6.66197 1.86953 7.74973 0.750244 9.09155 0.750244C10.4334 0.750244 11.5211 1.86953 11.5211 3.25024C11.5211 4.63096 10.4334 5.75024 9.09155 5.75024Z" fill="#999999"/>
</svg>
